<mxfile host="Electron" modified="2023-06-14T23:17:24.697Z" agent="Mozilla/5.0 (Macintosh; Intel Mac OS X 10_15_7) AppleWebKit/537.36 (KHTML, like Gecko) draw.io/21.4.0 Chrome/112.0.5615.204 Electron/24.5.1 Safari/537.36" etag="Bw-Z8BEJ0IuCSZlYmHmG" version="21.4.0" type="device">
  <diagram name="Page-1" id="kkOJNV61keydEqnXiHIc">
    <mxGraphModel dx="1114" dy="894" grid="1" gridSize="10" guides="1" tooltips="1" connect="1" arrows="1" fold="1" page="1" pageScale="1" pageWidth="850" pageHeight="1100" math="0" shadow="0">
      <root>
        <mxCell id="0" />
        <mxCell id="1" parent="0" />
        <mxCell id="f4hD2vWQPHktnL_7DtSF-1" value="" style="rounded=1;whiteSpace=wrap;html=1;arcSize=5;fontFamily=SF Mono;fillColor=#CCFFFF;" vertex="1" parent="1">
          <mxGeometry x="430" y="240" width="80" height="490" as="geometry" />
        </mxCell>
        <mxCell id="f4hD2vWQPHktnL_7DtSF-2" value="PREV_OP1" style="rounded=1;whiteSpace=wrap;html=1;arcSize=5;fontFamily=SF Mono;fillColor=#CCFFFF;" vertex="1" parent="1">
          <mxGeometry x="430" y="240" width="80" height="70" as="geometry" />
        </mxCell>
        <mxCell id="f4hD2vWQPHktnL_7DtSF-7" value="Code" style="text;html=1;strokeColor=none;fillColor=none;align=center;verticalAlign=middle;whiteSpace=wrap;rounded=0;fontFamily=SF Mono;" vertex="1" parent="1">
          <mxGeometry x="440" y="200" width="60" height="30" as="geometry" />
        </mxCell>
        <mxCell id="f4hD2vWQPHktnL_7DtSF-9" value="PC" style="text;html=1;strokeColor=none;fillColor=none;align=center;verticalAlign=middle;whiteSpace=wrap;rounded=0;fontFamily=SF Mono;" vertex="1" parent="1">
          <mxGeometry x="540" y="210" width="60" height="30" as="geometry" />
        </mxCell>
        <mxCell id="f4hD2vWQPHktnL_7DtSF-11" value="PREV_OP2" style="rounded=1;whiteSpace=wrap;html=1;arcSize=5;fontFamily=SF Mono;fillColor=#CCFFFF;" vertex="1" parent="1">
          <mxGeometry x="430" y="310" width="80" height="70" as="geometry" />
        </mxCell>
        <mxCell id="f4hD2vWQPHktnL_7DtSF-12" value="LOAD_a" style="rounded=1;whiteSpace=wrap;html=1;arcSize=5;fontFamily=SF Mono;fillColor=#CCFFFF;" vertex="1" parent="1">
          <mxGeometry x="430" y="380" width="80" height="70" as="geometry" />
        </mxCell>
        <mxCell id="f4hD2vWQPHktnL_7DtSF-13" value="LOAD_b" style="rounded=1;whiteSpace=wrap;html=1;arcSize=5;fontFamily=SF Mono;fillColor=#CCFFFF;" vertex="1" parent="1">
          <mxGeometry x="430" y="450" width="80" height="70" as="geometry" />
        </mxCell>
        <mxCell id="f4hD2vWQPHktnL_7DtSF-14" value="ADD" style="rounded=1;whiteSpace=wrap;html=1;arcSize=5;fontFamily=SF Mono;fillColor=#CCFFFF;" vertex="1" parent="1">
          <mxGeometry x="430" y="520" width="80" height="70" as="geometry" />
        </mxCell>
        <mxCell id="f4hD2vWQPHktnL_7DtSF-15" value="NEXT_OP1" style="rounded=1;whiteSpace=wrap;html=1;arcSize=5;fontFamily=SF Mono;fillColor=#CCFFFF;" vertex="1" parent="1">
          <mxGeometry x="430" y="590" width="80" height="70" as="geometry" />
        </mxCell>
        <mxCell id="f4hD2vWQPHktnL_7DtSF-16" value="NEXT_OP2" style="rounded=1;whiteSpace=wrap;html=1;arcSize=5;fontFamily=SF Mono;fillColor=#CCFFFF;" vertex="1" parent="1">
          <mxGeometry x="430" y="660" width="80" height="70" as="geometry" />
        </mxCell>
        <mxCell id="f4hD2vWQPHktnL_7DtSF-17" value="" style="endArrow=classic;html=1;rounded=0;" edge="1" parent="1">
          <mxGeometry width="50" height="50" relative="1" as="geometry">
            <mxPoint x="610" y="240" as="sourcePoint" />
            <mxPoint x="520" y="240" as="targetPoint" />
          </mxGeometry>
        </mxCell>
      </root>
    </mxGraphModel>
  </diagram>
</mxfile>
